{"title":"A.Lonely.Place.to.Die.2011.BRRIP.720P.H264-ZEKTORM","uid":6909864,"size":3112731392,"categoryP":"video","categoryS":"hd___movies","magnet":"?xt=urn:btih:f6ba80166b3c2dc415d24f81f9cf9209d8e43d1a&amp;dn=A.Lonely.Place.to.Die.2011.BRRIP.720P.H264-ZEKTORM&amp;tr=udp%3A%2F%2Ftracker.openbittorrent.com%3A80&amp;tr=udp%3A%2F%2Fopen.demonii.com%3A1337&amp;tr=udp%3A%2F%2Ftracker.coppersurfer.tk%3A6969&amp;tr=udp%3A%2F%2Fexodus.desync.com%3A6969","seeders":0,"leechers":1,"uploader":"blowley","files":4,"time":1324746644,"description":"Title                            : A Lonely Place to Die\nYear                             : 2011\nGenre                            : Adventure | Crime | Thriller\niMDB URL                         : http://www.imdb.com/title/tt1422136/\n\nComplete name                    : A.Lonely.Place.to.Die.2011.BRRIP.720P.H264-ZEKTORM.mp4\nFormat                           : MPEG-4\nFormat profile                   : Base Media\nCodec ID                         : isom\nFile size                        : 2.90 GiB\nDuration                         : 1h 39mn\nOverall bit rate                 : 4187 Kbps\nSubtitles                        : English (Format: srt)\n\nVideo\nID                               : 1\nFormat                           : AVC\nFormat/Info                      : Advanced Video Codec\nFormat profile                   : &lt;a class=&quot;__cf_email__&quot; href=&quot;/cdn-cgi/l/email-protection&quot; data-cfemail=&quot;6e260709062e225a405f&quot;&gt;[email&amp;#160;protected]&lt;/a&gt;&lt;script cf-hash='f9e31' type=&quot;text/javascript&quot;&gt;\n/* &lt;![CDATA[ */!function(){try{var t=&quot;currentScript&quot;in document?document.currentScript:function(){for(var t=document.getElementsByTagName(&quot;script&quot;),e=t.length;e--;)if(t[e].getAttribute(&quot;cf-hash&quot;))return t[e]}();if(t&amp;&amp;t.previousSibling){var e,r,n,i,c=t.previousSibling,a=c.getAttribute(&quot;data-cfemail&quot;);if(a){for(e=&quot;&quot;,r=parseInt(a.substr(0,2),16),n=2;a.length-n;n+=2)i=parseInt(a.substr(n,2),16)^r,e+=String.fromCharCode(i);e=document.createTextNode(e),c.parentNode.replaceChild(e,c)}}}catch(u){}}();/* ]]&gt; */&lt;/script&gt;\nFormat settings, CABAC           : Yes\nFormat settings, ReFrames        : 5 frames\nCodec ID                         : avc1\nCodec ID/Info                    : Advanced Video Coding\nDuration                         : 1h 39mn\nBit rate mode                    : Variable\nBit rate                         : 3737 Kbps\nWidth                            : 1280 pixels\nHeight                           : 544 pixels\nDisplay aspect ratio             : 2.35\nFrame rate mode                  : Constant\nFrame rate                       : 23.976 fps\nResolution                       : 24 bits\nColorimetry                      : 4:2:0\nScan type                        : Progressive\nBits/(Pixel*Frame)               : 0.224\nStream size                      : 2.59 GiB (89%)\nTitle                            : Video\nWriting library                  : x264\n\nAudio\nID                               : 2\nFormat                           : AAC\nFormat/Info                      : Advanced Audio Codec\nFormat version                   : Version 4\nFormat profile                   : LC\nFormat settings, SBR             : No\nCodec ID                         : 40\nDuration                         : 1h 39mn\nBit rate mode                    : Variable\nBit rate                         : 446 Kbps\nMaximum bit rate                 : 673 Kbps\nChannel(s)                       : 6 channels\nChannel positions                : Front: L C R, Rear: L R, LFE\nSampling rate                    : 48.0 KHz\nResolution                       : 16 bits\nStream size                      : 316 MiB (11%)\nLanguage                         : English\n\n\nScreenshots:\n\n[img]http://img812.imageshack.us/img812/7049/snapalptd1.png[/img]\n\n[img]http://img195.imageshack.us/img195/5589/snapalptd2.png[/img]\n\n[img]http://img685.imageshack.us/img685/493/snapalptd3.png[/img]\n","torrent":{"xt":"urn:btih:f6ba80166b3c2dc415d24f81f9cf9209d8e43d1a","amp;dn":"A.Lonely.Place.to.Die.2011.BRRIP.720P.H264-ZEKTORM","amp;tr":["udp%3A%2F%2Ftracker.openbittorrent.com%3A80","udp%3A%2F%2Fopen.demonii.com%3A1337","udp%3A%2F%2Ftracker.coppersurfer.tk%3A6969","udp%3A%2F%2Fexodus.desync.com%3A6969"],"infoHash":"f6ba80166b3c2dc415d24f81f9cf9209d8e43d1a","infoHashBuffer":{"type":"Buffer","data":[246,186,128,22,107,60,45,196,21,210,79,129,249,207,146,9,216,228,61,26]},"announce":[],"urlList":[]}}